<mxfile host="app.diagrams.net" agent="Mozilla/5.0 (Windows NT 10.0; Win64; x64) AppleWebKit/537.36 (KHTML, like Gecko) Chrome/136.0.0.0 Safari/537.36" version="27.1.1">
  <diagram id="R2lEEEUBdFMjLlhIrx00" name="Page-1">
    <mxGraphModel dx="2276" dy="1851" grid="1" gridSize="10" guides="1" tooltips="1" connect="1" arrows="1" fold="1" page="1" pageScale="1" pageWidth="850" pageHeight="1100" math="0" shadow="0" extFonts="Permanent Marker^https://fonts.googleapis.com/css?family=Permanent+Marker">
      <root>
        <mxCell id="0" />
        <mxCell id="1" parent="0" />
        <mxCell id="EV7Ik7ajKla9dNGHxrBI-9" value="POKEMON" style="rounded=0;whiteSpace=wrap;html=1;" parent="1" vertex="1">
          <mxGeometry x="200" y="260" width="120" height="60" as="geometry" />
        </mxCell>
        <mxCell id="EV7Ik7ajKla9dNGHxrBI-10" value="TIPO" style="rounded=0;whiteSpace=wrap;html=1;" parent="1" vertex="1">
          <mxGeometry x="680" y="260" width="120" height="60" as="geometry" />
        </mxCell>
        <mxCell id="EV7Ik7ajKla9dNGHxrBI-11" value="JUEGO" style="rounded=0;whiteSpace=wrap;html=1;" parent="1" vertex="1">
          <mxGeometry x="200" y="630" width="120" height="60" as="geometry" />
        </mxCell>
        <mxCell id="EV7Ik7ajKla9dNGHxrBI-12" value="REGION" style="rounded=0;whiteSpace=wrap;html=1;" parent="1" vertex="1">
          <mxGeometry x="-160" y="630" width="120" height="60" as="geometry" />
        </mxCell>
        <mxCell id="EV7Ik7ajKla9dNGHxrBI-13" value="GENERACION" style="rounded=0;whiteSpace=wrap;html=1;" parent="1" vertex="1">
          <mxGeometry x="-305" y="260" width="120" height="60" as="geometry" />
        </mxCell>
        <mxCell id="EV7Ik7ajKla9dNGHxrBI-14" value="EVOLUCION" style="rounded=0;whiteSpace=wrap;html=1;" parent="1" vertex="1">
          <mxGeometry x="200" y="-210" width="120" height="60" as="geometry" />
        </mxCell>
        <mxCell id="EV7Ik7ajKla9dNGHxrBI-15" value="tiene" style="rhombus;whiteSpace=wrap;html=1;" parent="1" vertex="1">
          <mxGeometry x="460" y="250" width="80" height="80" as="geometry" />
        </mxCell>
        <mxCell id="EV7Ik7ajKla9dNGHxrBI-16" value="" style="endArrow=none;html=1;rounded=0;exitX=1;exitY=0.5;exitDx=0;exitDy=0;entryX=0;entryY=0.5;entryDx=0;entryDy=0;" parent="1" source="EV7Ik7ajKla9dNGHxrBI-9" target="EV7Ik7ajKla9dNGHxrBI-15" edge="1">
          <mxGeometry width="50" height="50" relative="1" as="geometry">
            <mxPoint x="380" y="420" as="sourcePoint" />
            <mxPoint x="430" y="370" as="targetPoint" />
          </mxGeometry>
        </mxCell>
        <mxCell id="EV7Ik7ajKla9dNGHxrBI-17" value="" style="endArrow=none;html=1;rounded=0;entryX=0;entryY=0.5;entryDx=0;entryDy=0;exitX=1;exitY=0.5;exitDx=0;exitDy=0;" parent="1" source="EV7Ik7ajKla9dNGHxrBI-15" target="EV7Ik7ajKla9dNGHxrBI-10" edge="1">
          <mxGeometry width="50" height="50" relative="1" as="geometry">
            <mxPoint x="420" y="420" as="sourcePoint" />
            <mxPoint x="470" y="370" as="targetPoint" />
          </mxGeometry>
        </mxCell>
        <mxCell id="EV7Ik7ajKla9dNGHxrBI-18" value="aparece en" style="rhombus;whiteSpace=wrap;html=1;" parent="1" vertex="1">
          <mxGeometry x="220" y="420" width="80" height="80" as="geometry" />
        </mxCell>
        <mxCell id="EV7Ik7ajKla9dNGHxrBI-19" value="" style="endArrow=none;html=1;rounded=0;exitX=0.5;exitY=0;exitDx=0;exitDy=0;" parent="1" source="EV7Ik7ajKla9dNGHxrBI-11" target="EV7Ik7ajKla9dNGHxrBI-18" edge="1">
          <mxGeometry width="50" height="50" relative="1" as="geometry">
            <mxPoint x="390" y="500" as="sourcePoint" />
            <mxPoint x="440" y="450" as="targetPoint" />
          </mxGeometry>
        </mxCell>
        <mxCell id="EV7Ik7ajKla9dNGHxrBI-20" value="" style="endArrow=none;html=1;rounded=0;entryX=0.5;entryY=1;entryDx=0;entryDy=0;exitX=0.5;exitY=0;exitDx=0;exitDy=0;" parent="1" source="EV7Ik7ajKla9dNGHxrBI-18" target="EV7Ik7ajKla9dNGHxrBI-9" edge="1">
          <mxGeometry width="50" height="50" relative="1" as="geometry">
            <mxPoint x="270" y="350" as="sourcePoint" />
            <mxPoint x="280" y="440" as="targetPoint" />
          </mxGeometry>
        </mxCell>
        <mxCell id="EV7Ik7ajKla9dNGHxrBI-21" value="pertenece" style="rhombus;whiteSpace=wrap;html=1;" parent="1" vertex="1">
          <mxGeometry x="60" y="620" width="80" height="80" as="geometry" />
        </mxCell>
        <mxCell id="EV7Ik7ajKla9dNGHxrBI-22" value="" style="endArrow=none;html=1;rounded=0;entryX=1;entryY=0.5;entryDx=0;entryDy=0;exitX=0;exitY=0.5;exitDx=0;exitDy=0;" parent="1" source="EV7Ik7ajKla9dNGHxrBI-11" target="EV7Ik7ajKla9dNGHxrBI-21" edge="1">
          <mxGeometry width="50" height="50" relative="1" as="geometry">
            <mxPoint x="390" y="500" as="sourcePoint" />
            <mxPoint x="440" y="450" as="targetPoint" />
          </mxGeometry>
        </mxCell>
        <mxCell id="EV7Ik7ajKla9dNGHxrBI-23" value="" style="endArrow=none;html=1;rounded=0;entryX=1;entryY=0.5;entryDx=0;entryDy=0;exitX=0;exitY=0.5;exitDx=0;exitDy=0;" parent="1" source="EV7Ik7ajKla9dNGHxrBI-21" target="EV7Ik7ajKla9dNGHxrBI-12" edge="1">
          <mxGeometry width="50" height="50" relative="1" as="geometry">
            <mxPoint x="390" y="500" as="sourcePoint" />
            <mxPoint x="440" y="450" as="targetPoint" />
          </mxGeometry>
        </mxCell>
        <mxCell id="EV7Ik7ajKla9dNGHxrBI-26" value="pertenece" style="rhombus;whiteSpace=wrap;html=1;" parent="1" vertex="1">
          <mxGeometry x="-45" y="250" width="80" height="80" as="geometry" />
        </mxCell>
        <mxCell id="EV7Ik7ajKla9dNGHxrBI-27" value="" style="endArrow=none;html=1;rounded=0;entryX=0;entryY=0.5;entryDx=0;entryDy=0;exitX=1;exitY=0.5;exitDx=0;exitDy=0;" parent="1" source="EV7Ik7ajKla9dNGHxrBI-13" target="EV7Ik7ajKla9dNGHxrBI-26" edge="1">
          <mxGeometry width="50" height="50" relative="1" as="geometry">
            <mxPoint x="25" y="420" as="sourcePoint" />
            <mxPoint x="75" y="370" as="targetPoint" />
          </mxGeometry>
        </mxCell>
        <mxCell id="EV7Ik7ajKla9dNGHxrBI-28" value="" style="endArrow=none;html=1;rounded=0;entryX=0;entryY=0.5;entryDx=0;entryDy=0;exitX=1;exitY=0.5;exitDx=0;exitDy=0;" parent="1" source="EV7Ik7ajKla9dNGHxrBI-26" target="EV7Ik7ajKla9dNGHxrBI-9" edge="1">
          <mxGeometry width="50" height="50" relative="1" as="geometry">
            <mxPoint x="120" y="420" as="sourcePoint" />
            <mxPoint x="170" y="370" as="targetPoint" />
          </mxGeometry>
        </mxCell>
        <mxCell id="EV7Ik7ajKla9dNGHxrBI-29" value="origen" style="rhombus;whiteSpace=wrap;html=1;" parent="1" vertex="1">
          <mxGeometry x="135" width="70" height="60" as="geometry" />
        </mxCell>
        <mxCell id="EV7Ik7ajKla9dNGHxrBI-30" value="resultado" style="rhombus;whiteSpace=wrap;html=1;" parent="1" vertex="1">
          <mxGeometry x="310" width="70" height="60" as="geometry" />
        </mxCell>
        <mxCell id="EV7Ik7ajKla9dNGHxrBI-31" value="" style="endArrow=none;html=1;rounded=0;entryX=0.5;entryY=1;entryDx=0;entryDy=0;exitX=0.133;exitY=0;exitDx=0;exitDy=0;exitPerimeter=0;" parent="1" source="EV7Ik7ajKla9dNGHxrBI-9" target="EV7Ik7ajKla9dNGHxrBI-29" edge="1">
          <mxGeometry width="50" height="50" relative="1" as="geometry">
            <mxPoint x="190" y="420" as="sourcePoint" />
            <mxPoint x="240" y="370" as="targetPoint" />
          </mxGeometry>
        </mxCell>
        <mxCell id="EV7Ik7ajKla9dNGHxrBI-32" value="" style="endArrow=none;html=1;rounded=0;entryX=0.5;entryY=1;entryDx=0;entryDy=0;exitX=0.75;exitY=0;exitDx=0;exitDy=0;" parent="1" source="EV7Ik7ajKla9dNGHxrBI-9" target="EV7Ik7ajKla9dNGHxrBI-30" edge="1">
          <mxGeometry width="50" height="50" relative="1" as="geometry">
            <mxPoint x="190" y="420" as="sourcePoint" />
            <mxPoint x="240" y="370" as="targetPoint" />
          </mxGeometry>
        </mxCell>
        <mxCell id="EV7Ik7ajKla9dNGHxrBI-33" value="" style="endArrow=none;html=1;rounded=0;entryX=0.25;entryY=1;entryDx=0;entryDy=0;exitX=0.5;exitY=0;exitDx=0;exitDy=0;" parent="1" source="EV7Ik7ajKla9dNGHxrBI-29" target="EV7Ik7ajKla9dNGHxrBI-14" edge="1">
          <mxGeometry width="50" height="50" relative="1" as="geometry">
            <mxPoint x="190" y="280" as="sourcePoint" />
            <mxPoint x="240" y="230" as="targetPoint" />
          </mxGeometry>
        </mxCell>
        <mxCell id="EV7Ik7ajKla9dNGHxrBI-34" value="" style="endArrow=none;html=1;rounded=0;entryX=0.75;entryY=1;entryDx=0;entryDy=0;exitX=0.5;exitY=0;exitDx=0;exitDy=0;" parent="1" source="EV7Ik7ajKla9dNGHxrBI-30" target="EV7Ik7ajKla9dNGHxrBI-14" edge="1">
          <mxGeometry width="50" height="50" relative="1" as="geometry">
            <mxPoint x="190" y="280" as="sourcePoint" />
            <mxPoint x="240" y="230" as="targetPoint" />
          </mxGeometry>
        </mxCell>
        <mxCell id="EV7Ik7ajKla9dNGHxrBI-36" value="N" style="text;html=1;align=center;verticalAlign=middle;resizable=0;points=[];autosize=1;strokeColor=none;fillColor=none;" parent="1" vertex="1">
          <mxGeometry x="430" y="250" width="30" height="30" as="geometry" />
        </mxCell>
        <mxCell id="EV7Ik7ajKla9dNGHxrBI-37" value="M" style="text;html=1;align=center;verticalAlign=middle;resizable=0;points=[];autosize=1;strokeColor=none;fillColor=none;" parent="1" vertex="1">
          <mxGeometry x="540" y="250" width="30" height="30" as="geometry" />
        </mxCell>
        <mxCell id="EV7Ik7ajKla9dNGHxrBI-39" value="N" style="text;html=1;align=center;verticalAlign=middle;resizable=0;points=[];autosize=1;strokeColor=none;fillColor=none;" parent="1" vertex="1">
          <mxGeometry x="270" y="400" width="30" height="30" as="geometry" />
        </mxCell>
        <mxCell id="EV7Ik7ajKla9dNGHxrBI-40" value="M" style="text;html=1;align=center;verticalAlign=middle;resizable=0;points=[];autosize=1;strokeColor=none;fillColor=none;" parent="1" vertex="1">
          <mxGeometry x="270" y="490" width="30" height="30" as="geometry" />
        </mxCell>
        <mxCell id="EV7Ik7ajKla9dNGHxrBI-42" value="N" style="text;html=1;align=center;verticalAlign=middle;resizable=0;points=[];autosize=1;strokeColor=none;fillColor=none;" parent="1" vertex="1">
          <mxGeometry x="135" y="620" width="30" height="30" as="geometry" />
        </mxCell>
        <mxCell id="EV7Ik7ajKla9dNGHxrBI-43" value="1" style="text;html=1;align=center;verticalAlign=middle;resizable=0;points=[];autosize=1;strokeColor=none;fillColor=none;" parent="1" vertex="1">
          <mxGeometry x="35" y="620" width="30" height="30" as="geometry" />
        </mxCell>
        <mxCell id="EV7Ik7ajKla9dNGHxrBI-44" value="N,1" style="text;html=1;align=center;verticalAlign=middle;resizable=0;points=[];autosize=1;strokeColor=none;fillColor=none;" parent="1" vertex="1">
          <mxGeometry x="35" y="250" width="40" height="30" as="geometry" />
        </mxCell>
        <mxCell id="EV7Ik7ajKla9dNGHxrBI-45" value="N,1" style="text;html=1;align=center;verticalAlign=middle;resizable=0;points=[];autosize=1;strokeColor=none;fillColor=none;" parent="1" vertex="1">
          <mxGeometry x="-95" y="250" width="40" height="30" as="geometry" />
        </mxCell>
        <mxCell id="EV7Ik7ajKla9dNGHxrBI-46" value="1" style="text;html=1;align=center;verticalAlign=middle;resizable=0;points=[];autosize=1;strokeColor=none;fillColor=none;" parent="1" vertex="1">
          <mxGeometry x="130" y="50" width="30" height="30" as="geometry" />
        </mxCell>
        <mxCell id="EV7Ik7ajKla9dNGHxrBI-47" value="0,N" style="text;html=1;align=center;verticalAlign=middle;resizable=0;points=[];autosize=1;strokeColor=none;fillColor=none;" parent="1" vertex="1">
          <mxGeometry x="125" y="-12" width="40" height="30" as="geometry" />
        </mxCell>
        <mxCell id="EV7Ik7ajKla9dNGHxrBI-48" value="0,1" style="text;html=1;align=center;verticalAlign=middle;resizable=0;points=[];autosize=1;strokeColor=none;fillColor=none;" parent="1" vertex="1">
          <mxGeometry x="355" y="-20" width="40" height="30" as="geometry" />
        </mxCell>
        <mxCell id="EV7Ik7ajKla9dNGHxrBI-49" value="1" style="text;html=1;align=center;verticalAlign=middle;resizable=0;points=[];autosize=1;strokeColor=none;fillColor=none;" parent="1" vertex="1">
          <mxGeometry x="350" y="50" width="30" height="30" as="geometry" />
        </mxCell>
        <mxCell id="EV7Ik7ajKla9dNGHxrBI-50" value="&lt;u&gt;id_pokemon*&lt;/u&gt;" style="ellipse;whiteSpace=wrap;html=1;" parent="1" vertex="1">
          <mxGeometry x="340" y="305" width="75" height="50" as="geometry" />
        </mxCell>
        <mxCell id="EV7Ik7ajKla9dNGHxrBI-51" value="nombre" style="ellipse;whiteSpace=wrap;html=1;" parent="1" vertex="1">
          <mxGeometry x="300" y="360" width="60" height="40" as="geometry" />
        </mxCell>
        <mxCell id="EV7Ik7ajKla9dNGHxrBI-53" value="altura" style="ellipse;whiteSpace=wrap;html=1;" parent="1" vertex="1">
          <mxGeometry x="115" y="310" width="60" height="40" as="geometry" />
        </mxCell>
        <mxCell id="EV7Ik7ajKla9dNGHxrBI-54" value="peso" style="ellipse;whiteSpace=wrap;html=1;" parent="1" vertex="1">
          <mxGeometry x="145" y="360" width="60" height="40" as="geometry" />
        </mxCell>
        <mxCell id="EV7Ik7ajKla9dNGHxrBI-58" value="" style="endArrow=none;html=1;rounded=0;entryX=0;entryY=1;entryDx=0;entryDy=0;exitX=1;exitY=0.5;exitDx=0;exitDy=0;" parent="1" source="EV7Ik7ajKla9dNGHxrBI-53" target="EV7Ik7ajKla9dNGHxrBI-9" edge="1">
          <mxGeometry width="50" height="50" relative="1" as="geometry">
            <mxPoint x="140" y="180" as="sourcePoint" />
            <mxPoint x="190" y="130" as="targetPoint" />
          </mxGeometry>
        </mxCell>
        <mxCell id="EV7Ik7ajKla9dNGHxrBI-59" value="" style="endArrow=none;html=1;rounded=0;entryX=0.25;entryY=1;entryDx=0;entryDy=0;exitX=1;exitY=0;exitDx=0;exitDy=0;" parent="1" source="EV7Ik7ajKla9dNGHxrBI-54" target="EV7Ik7ajKla9dNGHxrBI-9" edge="1">
          <mxGeometry width="50" height="50" relative="1" as="geometry">
            <mxPoint x="140" y="180" as="sourcePoint" />
            <mxPoint x="190" y="130" as="targetPoint" />
          </mxGeometry>
        </mxCell>
        <mxCell id="EV7Ik7ajKla9dNGHxrBI-60" value="" style="endArrow=none;html=1;rounded=0;entryX=0.5;entryY=0;entryDx=0;entryDy=0;exitX=0.75;exitY=1;exitDx=0;exitDy=0;" parent="1" source="EV7Ik7ajKla9dNGHxrBI-9" target="EV7Ik7ajKla9dNGHxrBI-51" edge="1">
          <mxGeometry width="50" height="50" relative="1" as="geometry">
            <mxPoint x="140" y="180" as="sourcePoint" />
            <mxPoint x="190" y="130" as="targetPoint" />
          </mxGeometry>
        </mxCell>
        <mxCell id="EV7Ik7ajKla9dNGHxrBI-61" value="" style="endArrow=none;html=1;rounded=0;entryX=0;entryY=0;entryDx=0;entryDy=0;exitX=1;exitY=0.75;exitDx=0;exitDy=0;" parent="1" source="EV7Ik7ajKla9dNGHxrBI-9" target="EV7Ik7ajKla9dNGHxrBI-50" edge="1">
          <mxGeometry width="50" height="50" relative="1" as="geometry">
            <mxPoint x="140" y="180" as="sourcePoint" />
            <mxPoint x="190" y="130" as="targetPoint" />
          </mxGeometry>
        </mxCell>
        <mxCell id="EV7Ik7ajKla9dNGHxrBI-63" value="&lt;u&gt;id_tipo*&lt;/u&gt;" style="ellipse;whiteSpace=wrap;html=1;" parent="1" vertex="1">
          <mxGeometry x="680" y="190" width="60" height="40" as="geometry" />
        </mxCell>
        <mxCell id="EV7Ik7ajKla9dNGHxrBI-65" value="&lt;u&gt;nombre&lt;/u&gt;" style="ellipse;whiteSpace=wrap;html=1;" parent="1" vertex="1">
          <mxGeometry x="770" y="190" width="60" height="40" as="geometry" />
        </mxCell>
        <mxCell id="EV7Ik7ajKla9dNGHxrBI-66" value="" style="endArrow=none;html=1;rounded=0;entryX=0.5;entryY=1;entryDx=0;entryDy=0;exitX=0.25;exitY=0;exitDx=0;exitDy=0;" parent="1" source="EV7Ik7ajKla9dNGHxrBI-10" target="EV7Ik7ajKla9dNGHxrBI-63" edge="1">
          <mxGeometry width="50" height="50" relative="1" as="geometry">
            <mxPoint x="580" y="280" as="sourcePoint" />
            <mxPoint x="630" y="230" as="targetPoint" />
          </mxGeometry>
        </mxCell>
        <mxCell id="EV7Ik7ajKla9dNGHxrBI-67" value="" style="endArrow=none;html=1;rounded=0;entryX=0.5;entryY=1;entryDx=0;entryDy=0;exitX=0.75;exitY=0;exitDx=0;exitDy=0;" parent="1" source="EV7Ik7ajKla9dNGHxrBI-10" target="EV7Ik7ajKla9dNGHxrBI-65" edge="1">
          <mxGeometry width="50" height="50" relative="1" as="geometry">
            <mxPoint x="580" y="280" as="sourcePoint" />
            <mxPoint x="630" y="230" as="targetPoint" />
          </mxGeometry>
        </mxCell>
        <mxCell id="EV7Ik7ajKla9dNGHxrBI-69" value="&lt;u&gt;id_juego*&lt;/u&gt;" style="ellipse;whiteSpace=wrap;html=1;" parent="1" vertex="1">
          <mxGeometry x="365" y="640" width="60" height="40" as="geometry" />
        </mxCell>
        <mxCell id="EV7Ik7ajKla9dNGHxrBI-70" value="nombre" style="ellipse;whiteSpace=wrap;html=1;" parent="1" vertex="1">
          <mxGeometry x="330" y="730" width="60" height="40" as="geometry" />
        </mxCell>
        <mxCell id="EV7Ik7ajKla9dNGHxrBI-72" value="año_lancamiento" style="ellipse;whiteSpace=wrap;html=1;" parent="1" vertex="1">
          <mxGeometry x="205" y="750" width="105" height="70" as="geometry" />
        </mxCell>
        <mxCell id="EV7Ik7ajKla9dNGHxrBI-73" value="" style="endArrow=none;html=1;rounded=0;entryX=0;entryY=0.5;entryDx=0;entryDy=0;exitX=1;exitY=0.5;exitDx=0;exitDy=0;" parent="1" source="EV7Ik7ajKla9dNGHxrBI-11" target="EV7Ik7ajKla9dNGHxrBI-69" edge="1">
          <mxGeometry width="50" height="50" relative="1" as="geometry">
            <mxPoint x="270" y="580" as="sourcePoint" />
            <mxPoint x="320" y="530" as="targetPoint" />
          </mxGeometry>
        </mxCell>
        <mxCell id="EV7Ik7ajKla9dNGHxrBI-74" value="" style="endArrow=none;html=1;rounded=0;entryX=0;entryY=0;entryDx=0;entryDy=0;exitX=0.75;exitY=1;exitDx=0;exitDy=0;" parent="1" source="EV7Ik7ajKla9dNGHxrBI-11" target="EV7Ik7ajKla9dNGHxrBI-70" edge="1">
          <mxGeometry width="50" height="50" relative="1" as="geometry">
            <mxPoint x="270" y="580" as="sourcePoint" />
            <mxPoint x="320" y="530" as="targetPoint" />
          </mxGeometry>
        </mxCell>
        <mxCell id="EV7Ik7ajKla9dNGHxrBI-76" value="" style="endArrow=none;html=1;rounded=0;entryX=0.5;entryY=0;entryDx=0;entryDy=0;exitX=0.5;exitY=1;exitDx=0;exitDy=0;" parent="1" source="EV7Ik7ajKla9dNGHxrBI-11" target="EV7Ik7ajKla9dNGHxrBI-72" edge="1">
          <mxGeometry width="50" height="50" relative="1" as="geometry">
            <mxPoint x="270" y="580" as="sourcePoint" />
            <mxPoint x="320" y="530" as="targetPoint" />
          </mxGeometry>
        </mxCell>
        <mxCell id="EV7Ik7ajKla9dNGHxrBI-77" value="&lt;u&gt;id_region*&lt;/u&gt;" style="ellipse;whiteSpace=wrap;html=1;" parent="1" vertex="1">
          <mxGeometry x="-270" y="640" width="60" height="40" as="geometry" />
        </mxCell>
        <mxCell id="EV7Ik7ajKla9dNGHxrBI-78" value="nombre" style="ellipse;whiteSpace=wrap;html=1;" parent="1" vertex="1">
          <mxGeometry x="-220" y="710" width="60" height="40" as="geometry" />
        </mxCell>
        <mxCell id="EV7Ik7ajKla9dNGHxrBI-79" value="" style="endArrow=none;html=1;rounded=0;entryX=0;entryY=0.5;entryDx=0;entryDy=0;exitX=1;exitY=0.5;exitDx=0;exitDy=0;" parent="1" source="EV7Ik7ajKla9dNGHxrBI-77" target="EV7Ik7ajKla9dNGHxrBI-12" edge="1">
          <mxGeometry width="50" height="50" relative="1" as="geometry">
            <mxPoint x="-190" y="680" as="sourcePoint" />
            <mxPoint x="-140" y="630" as="targetPoint" />
          </mxGeometry>
        </mxCell>
        <mxCell id="EV7Ik7ajKla9dNGHxrBI-80" value="" style="endArrow=none;html=1;rounded=0;entryX=0.5;entryY=1;entryDx=0;entryDy=0;exitX=1;exitY=0.5;exitDx=0;exitDy=0;" parent="1" source="EV7Ik7ajKla9dNGHxrBI-78" target="EV7Ik7ajKla9dNGHxrBI-12" edge="1">
          <mxGeometry width="50" height="50" relative="1" as="geometry">
            <mxPoint x="-190" y="680" as="sourcePoint" />
            <mxPoint x="-140" y="630" as="targetPoint" />
          </mxGeometry>
        </mxCell>
        <mxCell id="EV7Ik7ajKla9dNGHxrBI-81" value="&lt;u&gt;id_evolucion*&lt;/u&gt;" style="ellipse;whiteSpace=wrap;html=1;" parent="1" vertex="1">
          <mxGeometry x="135" y="-300" width="85" height="50" as="geometry" />
        </mxCell>
        <mxCell id="EV7Ik7ajKla9dNGHxrBI-82" value="metodo" style="ellipse;whiteSpace=wrap;html=1;" parent="1" vertex="1">
          <mxGeometry x="295" y="-300" width="85" height="50" as="geometry" />
        </mxCell>
        <mxCell id="EV7Ik7ajKla9dNGHxrBI-84" value="" style="endArrow=none;html=1;rounded=0;entryX=0.5;entryY=1;entryDx=0;entryDy=0;exitX=0.75;exitY=0;exitDx=0;exitDy=0;" parent="1" source="EV7Ik7ajKla9dNGHxrBI-14" target="EV7Ik7ajKla9dNGHxrBI-82" edge="1">
          <mxGeometry width="50" height="50" relative="1" as="geometry">
            <mxPoint x="290" y="-120" as="sourcePoint" />
            <mxPoint x="340" y="-170" as="targetPoint" />
          </mxGeometry>
        </mxCell>
        <mxCell id="EV7Ik7ajKla9dNGHxrBI-85" value="" style="endArrow=none;html=1;rounded=0;entryX=0.5;entryY=1;entryDx=0;entryDy=0;exitX=0.25;exitY=0;exitDx=0;exitDy=0;" parent="1" source="EV7Ik7ajKla9dNGHxrBI-14" target="EV7Ik7ajKla9dNGHxrBI-81" edge="1">
          <mxGeometry width="50" height="50" relative="1" as="geometry">
            <mxPoint x="290" y="-20" as="sourcePoint" />
            <mxPoint x="340" y="-70" as="targetPoint" />
          </mxGeometry>
        </mxCell>
        <mxCell id="EV7Ik7ajKla9dNGHxrBI-86" value="&lt;u&gt;id_generacion*&lt;/u&gt;" style="ellipse;whiteSpace=wrap;html=1;" parent="1" vertex="1">
          <mxGeometry x="-460" y="265" width="90" height="50" as="geometry" />
        </mxCell>
        <mxCell id="EV7Ik7ajKla9dNGHxrBI-87" value="numero" style="ellipse;whiteSpace=wrap;html=1;" parent="1" vertex="1">
          <mxGeometry x="-360" y="355" width="90" height="50" as="geometry" />
        </mxCell>
        <mxCell id="EV7Ik7ajKla9dNGHxrBI-88" value="" style="endArrow=none;html=1;rounded=0;entryX=0;entryY=0.5;entryDx=0;entryDy=0;exitX=1;exitY=0.5;exitDx=0;exitDy=0;" parent="1" source="EV7Ik7ajKla9dNGHxrBI-86" target="EV7Ik7ajKla9dNGHxrBI-13" edge="1">
          <mxGeometry width="50" height="50" relative="1" as="geometry">
            <mxPoint x="-320" y="380" as="sourcePoint" />
            <mxPoint x="-270" y="330" as="targetPoint" />
          </mxGeometry>
        </mxCell>
        <mxCell id="EV7Ik7ajKla9dNGHxrBI-89" value="" style="endArrow=none;html=1;rounded=0;entryX=0.5;entryY=1;entryDx=0;entryDy=0;exitX=1;exitY=0;exitDx=0;exitDy=0;" parent="1" source="EV7Ik7ajKla9dNGHxrBI-87" target="EV7Ik7ajKla9dNGHxrBI-13" edge="1">
          <mxGeometry width="50" height="50" relative="1" as="geometry">
            <mxPoint x="-320" y="380" as="sourcePoint" />
            <mxPoint x="-270" y="330" as="targetPoint" />
          </mxGeometry>
        </mxCell>
        <mxCell id="EV7Ik7ajKla9dNGHxrBI-90" value="&lt;ul&gt;&lt;li&gt;Los id_pokemon responden al número de la pokedex.&lt;/li&gt;&lt;/ul&gt;&lt;div&gt;&lt;ul&gt;&lt;li data-end=&quot;861&quot; data-start=&quot;774&quot;&gt;&lt;p data-end=&quot;861&quot; data-start=&quot;777&quot;&gt;&lt;span data-end=&quot;861&quot; data-start=&quot;777&quot;&gt;Un Pokémon puede tener varios tipos y un tipo puede pertenecer a varios Pokémon.&lt;/span&gt;&lt;/p&gt;&lt;/li&gt;&lt;li data-end=&quot;861&quot; data-start=&quot;774&quot;&gt;&lt;p data-end=&quot;861&quot; data-start=&quot;777&quot;&gt;&lt;span style=&quot;background-color: transparent; color: light-dark(rgb(0, 0, 0), rgb(255, 255, 255));&quot;&gt;Un Pokémon puede aparecer en muchos juegos, y un juego puede tener muchos Pokémon.&lt;/span&gt;&lt;/p&gt;&lt;/li&gt;&lt;li data-end=&quot;1026&quot; data-start=&quot;954&quot;&gt;&lt;p data-end=&quot;1026&quot; data-start=&quot;957&quot;&gt;&lt;span data-end=&quot;1026&quot; data-start=&quot;957&quot;&gt;Una evolución conecta un Pokémon origen con un Pokémon resultado.&lt;/span&gt;&lt;/p&gt;&lt;/li&gt;&lt;li data-end=&quot;1147&quot; data-start=&quot;1028&quot;&gt;&lt;p data-end=&quot;1147&quot; data-start=&quot;1031&quot;&gt;&lt;span data-end=&quot;1147&quot; data-start=&quot;1031&quot;&gt;Los datos como región o generación se representan como entidades separadas y se relacionan con juegos y Pokémon.&lt;/span&gt;&lt;/p&gt;&lt;/li&gt;&lt;li data-end=&quot;1147&quot; data-start=&quot;1028&quot;&gt;&lt;p data-end=&quot;1147&quot; data-start=&quot;1031&quot;&gt;&lt;span data-end=&quot;1147&quot; data-start=&quot;1031&quot;&gt;El año lanzamiento es tipo DATE().&lt;/span&gt;&lt;/p&gt;&lt;/li&gt;&lt;li data-end=&quot;1147&quot; data-start=&quot;1028&quot;&gt;&lt;p data-end=&quot;1147&quot; data-start=&quot;1031&quot;&gt;&lt;span data-end=&quot;1147&quot; data-start=&quot;1031&quot;&gt;Los nombres de los pokemons son unicos&lt;/span&gt;&lt;/p&gt;&lt;/li&gt;&lt;li data-end=&quot;1147&quot; data-start=&quot;1028&quot;&gt;&lt;p data-end=&quot;1147&quot; data-start=&quot;1031&quot;&gt;&lt;span data-end=&quot;1147&quot; data-start=&quot;1031&quot;&gt;La altura y peso tienen que tener decimales&lt;/span&gt;&lt;/p&gt;&lt;/li&gt;&lt;li data-end=&quot;1147&quot; data-start=&quot;1028&quot;&gt;&lt;p data-end=&quot;1147&quot; data-start=&quot;1031&quot;&gt;&lt;span data-end=&quot;1147&quot; data-start=&quot;1031&quot;&gt;Las evoluciones solo pueden ser: [Nivel,Felicidad,Intercambio,Otros]&lt;/span&gt;&lt;/p&gt;&lt;/li&gt;&lt;/ul&gt;&lt;br&gt;&lt;br&gt;&lt;/div&gt;&lt;div&gt;&lt;br&gt;&lt;/div&gt;" style="whiteSpace=wrap;html=1;aspect=fixed;align=left;" parent="1" vertex="1">
          <mxGeometry x="480" y="450" width="370" height="370" as="geometry" />
        </mxCell>
      </root>
    </mxGraphModel>
  </diagram>
</mxfile>
